<?xml version="1.0" standalone="no"?><!-- Generator: Gravit.io --><svg xmlns="http://www.w3.org/2000/svg" xmlns:xlink="http://www.w3.org/1999/xlink" style="isolation:isolate" viewBox="0 0 700 500" width="700" height="500"><defs><clipPath id="_clipPath_DOXb8xBA61oILVEnT2VQbxaD370yRy7X"><rect width="700" height="500"/></clipPath></defs><g clip-path="url(#_clipPath_DOXb8xBA61oILVEnT2VQbxaD370yRy7X)"><g><path d=" M 440.639 112.462 C 462.736 165.373 437.72 226.27 384.809 248.367 C 331.899 270.465 271.002 245.449 248.904 192.538 C 226.806 139.627 251.823 78.73 304.733 56.633 C 357.644 34.535 418.541 59.551 440.639 112.462 Z " fill="rgb(255,255,255)" vector-effect="non-scaling-stroke" stroke-width="6" stroke="rgb(0,0,0)" stroke-linejoin="miter" stroke-linecap="square" stroke-miterlimit="3"/><clipPath id="_clipPath_6xukagDRNWuKL63ElJJhPXr6bCMyUzIR"><path d=" M 440.639 112.462 C 462.736 165.373 437.72 226.27 384.809 248.367 C 331.899 270.465 271.002 245.449 248.904 192.538 C 226.806 139.627 251.823 78.73 304.733 56.633 C 357.644 34.535 418.541 59.551 440.639 112.462 Z " fill="rgb(255,255,255)" vector-effect="non-scaling-stroke" stroke-width="6" stroke="rgb(0,0,0)" stroke-linejoin="miter" stroke-linecap="square" stroke-miterlimit="3"/></clipPath><g clip-path="url(#_clipPath_6xukagDRNWuKL63ElJJhPXr6bCMyUzIR)"/><path d=" M 440.639 112.462 C 462.736 165.373 437.72 226.27 384.809 248.367 C 331.899 270.465 271.002 245.449 248.904 192.538 C 226.806 139.627 251.823 78.73 304.733 56.633 C 357.644 34.535 418.541 59.551 440.639 112.462 Z " fill="transparent" vector-effect="non-scaling-stroke" stroke-width="6" stroke="rgb(0,0,0)" stroke-linejoin="miter" stroke-linecap="square" stroke-miterlimit="3"/><path d=" M 266.442 84.243 C 251.152 81.111 236.224 78.42 221.896 76.246 C 110.281 59.308 77.066 80.115 147.769 122.68 L 147.769 122.68 C 218.471 165.245 366.49 213.553 478.104 230.49 C 589.719 247.427 622.934 226.621 552.231 184.056 C 525.995 168.261 489.112 151.675 447.392 136.196 C 448.251 141.566 448.673 146.947 448.677 152.294 C 466.934 160 482.997 167.861 495.632 175.467 C 546.547 206.119 522.628 221.103 442.251 208.906 C 361.875 196.709 255.283 161.921 204.368 131.269 L 204.368 131.269 C 153.706 100.769 177.137 85.782 256.558 97.651 C 259.473 92.941 262.775 88.454 266.442 84.243 Z " fill-rule="evenodd" fill="rgb(255,255,255)" vector-effect="non-scaling-stroke" stroke-width="6" stroke="rgb(0,0,0)" stroke-linejoin="miter" stroke-linecap="square" stroke-miterlimit="3"/></g><g transform="matrix(1,0,0,1,133,281.181)"><text transform="matrix(1,0,0,1,0,133.606)" style="font-family:'Open Sans';font-weight:400;font-size:125px;font-style:normal;fill:#000000;stroke:none;">Κρόνος</text></g><path d=" M 313 72.408 C 325.142 72.408 335 82.266 335 94.408 C 335 106.55 325.142 116.408 313 116.408 C 300.858 116.408 291 106.55 291 94.408" fill="none" vector-effect="non-scaling-stroke" stroke-width="5" stroke="rgb(0,0,0)" stroke-linejoin="miter" stroke-linecap="square" stroke-miterlimit="3"/><path d=" M 373.684 110.804 C 376.196 113.519 377.75 117.269 377.75 121.408 C 377.75 129.687 371.533 136.408 363.875 136.408 C 356.217 136.408 349.999 129.687 350 121.408" fill="none" vector-effect="non-scaling-stroke" stroke-width="5" stroke="rgb(0,0,0)" stroke-linejoin="miter" stroke-linecap="square" stroke-miterlimit="3"/><ellipse vector-effect="non-scaling-stroke" cx="330.87500000000017" cy="144.40814256597338" rx="9.124999999999943" ry="9.864864864864785" fill="none" stroke-width="5" stroke="rgb(0,0,0)" stroke-linejoin="miter" stroke-linecap="square" stroke-miterlimit="3"/></g></svg>