<?xml version="1.0" standalone="no"?><!-- Generator: Gravit.io --><svg xmlns="http://www.w3.org/2000/svg" xmlns:xlink="http://www.w3.org/1999/xlink" style="isolation:isolate" viewBox="0 0 1200 300" width="1200" height="300"><defs><clipPath id="_clipPath_egp6ORLvqwcTdZyDuwK3E31eqAc8dWvL"><rect width="1200" height="300"/></clipPath></defs><g clip-path="url(#_clipPath_egp6ORLvqwcTdZyDuwK3E31eqAc8dWvL)"><g><path d=" M 438.33 114.235 C 460.428 167.146 435.411 228.043 382.501 250.14 C 329.59 272.238 268.693 247.222 246.595 194.311 C 224.498 141.4 249.514 80.503 302.425 58.406 C 355.335 36.308 416.232 61.324 438.33 114.235 Z " fill="rgb(255,255,255)" vector-effect="non-scaling-stroke" stroke-width="6" stroke="rgb(0,0,0)" stroke-linejoin="miter" stroke-linecap="square" stroke-miterlimit="3"/><clipPath id="_clipPath_34y0d3mxXOLW3gYoDqHlDJohP9RdcDtM"><path d=" M 438.33 114.235 C 460.428 167.146 435.411 228.043 382.501 250.14 C 329.59 272.238 268.693 247.222 246.595 194.311 C 224.498 141.4 249.514 80.503 302.425 58.406 C 355.335 36.308 416.232 61.324 438.33 114.235 Z " fill="rgb(255,255,255)" vector-effect="non-scaling-stroke" stroke-width="6" stroke="rgb(0,0,0)" stroke-linejoin="miter" stroke-linecap="square" stroke-miterlimit="3"/></clipPath><g clip-path="url(#_clipPath_34y0d3mxXOLW3gYoDqHlDJohP9RdcDtM)"/><path d=" M 438.33 114.235 C 460.428 167.146 435.411 228.043 382.501 250.14 C 329.59 272.238 268.693 247.222 246.595 194.311 C 224.498 141.4 249.514 80.503 302.425 58.406 C 355.335 36.308 416.232 61.324 438.33 114.235 Z " fill="transparent" vector-effect="non-scaling-stroke" stroke-width="6" stroke="rgb(0,0,0)" stroke-linejoin="miter" stroke-linecap="square" stroke-miterlimit="3"/><path d=" M 264.133 86.016 C 248.844 82.884 233.915 80.193 219.587 78.019 C 107.973 61.081 74.757 81.888 145.46 124.453 L 145.46 124.453 C 216.163 167.018 364.181 215.326 475.796 232.263 C 587.41 249.2 620.625 228.394 549.922 185.829 C 523.686 170.034 486.804 153.448 445.083 137.969 C 445.943 143.339 446.364 148.72 446.369 154.067 C 464.626 161.773 480.689 169.634 493.323 177.24 C 544.238 207.892 520.319 222.876 439.942 210.679 C 359.566 198.482 252.974 163.694 202.059 133.042 L 202.059 133.042 C 151.397 102.542 174.828 87.555 254.249 99.424 C 257.165 94.714 260.467 90.227 264.133 86.016 Z " fill-rule="evenodd" fill="rgb(255,255,255)" vector-effect="non-scaling-stroke" stroke-width="6" stroke="rgb(0,0,0)" stroke-linejoin="miter" stroke-linecap="square" stroke-miterlimit="3"/></g><g transform="matrix(1,0,0,1,657.691,69.159)"><text transform="matrix(1,0,0,1,0,133.606)" style="font-family:'Open Sans';font-weight:400;font-size:125px;font-style:normal;fill:#000000;stroke:none;">Κρόνος</text></g><path d=" M 313 72.408 C 325.142 72.408 335 82.266 335 94.408 C 335 106.55 325.142 116.408 313 116.408 C 300.858 116.408 291 106.55 291 94.408" fill="none" vector-effect="non-scaling-stroke" stroke-width="5" stroke="rgb(0,0,0)" stroke-linejoin="miter" stroke-linecap="square" stroke-miterlimit="3"/><path d=" M 373.684 110.804 C 376.196 113.519 377.75 117.269 377.75 121.408 C 377.75 129.687 371.533 136.408 363.875 136.408 C 356.217 136.408 349.999 129.687 350 121.408" fill="none" vector-effect="non-scaling-stroke" stroke-width="5" stroke="rgb(0,0,0)" stroke-linejoin="miter" stroke-linecap="square" stroke-miterlimit="3"/><ellipse vector-effect="non-scaling-stroke" cx="330.87500000000017" cy="144.40814256597338" rx="9.124999999999943" ry="9.864864864864785" fill="none" stroke-width="5" stroke="rgb(0,0,0)" stroke-linejoin="miter" stroke-linecap="square" stroke-miterlimit="3"/></g></svg>